<?xml version="1.0" encoding="UTF-8"?>
<svg id="Layer_2" data-name="Layer 2" xmlns="http://www.w3.org/2000/svg" viewBox="0 0 1163.46 1323.74">
  <defs>
    <style>
      .cls-1 {
        fill: #39a449;
      }
    </style>
  </defs>
  <g id="Layer_1-2" data-name="Layer 1">
    <g>
      <path class="cls-1" d="M1044.4,270.73l-2.72,536.31c-3.21,1.47-4.74,2.94-7.92,5.68l-452.15,263.34L120.71,807.06l.17-537.26L390.66,111.39,581.17,0l233.34,135.94,229.89,134.79ZM876.51,193.65l-140.38-83.27-146.32-84.91.22,37.11,198.76,114.96,87.72,16.11ZM191.81,300.92l39.72,23.97,167.14-97.47,113.36-166.27-82.47,46.61c-23.64,31.19-45.1,61.15-66.7,93.31l-171.05,99.85ZM573.71,125.74l-.6-47.18-44.18,25.04-52.93,77.3,97.7-55.17ZM932.32,325.16l38.99-24.85-381.51-221.49-.21,46.08,212.1,123.56,130.62,76.7ZM178.24,292.45l173.73-101.89,39.9-59.04-85.48,49.31-159.63,94.01,31.48,17.61ZM676.79,299.31l-86.99-133.91-.62,90.02,86.32,46.83,1.3-2.94ZM574.09,255.54l-.95-89.45-89.18,138.24,90.13-48.79ZM457.52,318.6l92.31-143.12-167.19,97.14,74.88,45.98ZM781.1,272.53l-166.6-96.11,91.29,141.71,75.31-45.61ZM877.69,193.57l-1,1,1,1,1-1-1-1ZM687.92,326.52l-98.72-55.5.05,105.41,98.66-49.91ZM435.41,320.41l-64.96-40.76-87.73,51.22,152.69-10.46ZM876.87,328.4l-83.74-48.57-65.6,40.17,147.75,10.51c.35-1.01.98-1.7,1.58-2.11ZM167.69,563.5l.57-254.13-31.19-18.33-.03,206.33,30.65,66.13ZM678.13,301.05l-.49,2.94c1.59-.1,2.1-2.18.49-2.94ZM223.16,736.2l-.23-395.24c-13.74-8.23-25.48-16.37-39.88-22.33l.05,441.11,40.06-23.54ZM980.42,759.39l-.26-440.8-39.37,22.51.05,397.9,39.59,20.39ZM877.5,331.33l1.44-1.09c-1.18-2.13-3.25-.18-1.44,1.09ZM344,392.42l90.3-57.14-167.74,10.8,77.44,46.34ZM895.55,346.48l-165.91-11.19,90.37,57,75.55-45.81ZM565.78,388.23l-99.15-49.98-6.93,112.19,106.08-62.21ZM703.34,450.67l-6.78-112.05-99.23,50.03,106.01,62.02ZM444.79,451.09l7.14-110.42-94.25,58.97,87.1,51.44ZM805.83,400.14l-95.22-59.72,7.84,110.27,87.37-50.56ZM334.69,509.28l.55-103.6-73.97-43.05,32.8,67.86,40.62,78.79ZM827.5,509.81l29.02-54.87,45.19-92.22-74.28,43.25.07,103.83ZM296.55,462.91l-42.3-80.38-.13,142.94,42.44-62.55ZM908.84,524.17l-.25-140.63-41.88,79.92,42.13,60.71ZM695.92,464.29l-106.97-62.26.69,124.57,106.28-62.31ZM573.91,526.26l.06-119.46-51.89,89.63,51.83,29.83ZM813.42,523.75l-.71-106.38-40.68,79.16,41.39,27.21ZM436.75,465.27l-41.09-24.31-42.94,80.72,84.03-56.41ZM302.26,601.38l31.86-62.26-31.87-62.36-42.02,62.16,42.02,62.45ZM704.48,601.58l.14-124.25-107.33,62.55,107.19,61.7ZM861.21,601.44l41.81-63.17-42.24-61.84-31.69,61.94,32.13,63.07ZM355.58,538.72l41.45,29.42,42.21-84.82c-10.01,3.84-17.51,10-26.14,15.92l-57.52,39.49ZM443.59,599.57l-.39-109.84-41.39,82.6,41.78,27.24ZM566.05,539.41l-52.68-30.14-54.08,92.38,106.75-62.24ZM808.1,538.87l-42.42-28.93-44.6,89.47,87.02-60.54ZM1026.41,786.67l.03-207.2-31.41-64.48-.18,253.04,31.55,18.65ZM295.76,614.57l-41.75-61.81.07,142.73,41.68-80.92ZM573.96,677.72l.02-124.88-106.55,62.42,106.53,62.46ZM695.44,615.28l-106.51-62.47.21,125.04,106.3-62.57ZM908.85,694.15v-140.37s-41.35,61.07-41.35,61.07l41.35,79.3ZM812.78,665.06l-.03-107.15-43.07,82.35,43.1,24.79ZM902.02,715.16l-74.39-148.67-.62,106.79,75.01,41.88ZM261.52,715.53l75.17-42.47-1.72-104.51-27.43,53.11c-16.22,31.03-32.06,61.1-46.01,93.87ZM437.06,614.38l-41.88-29.65-38.82,77.13,80.7-47.48ZM451.62,737.79l-7.08-108.61-85.43,49.33,92.51,59.28ZM566.09,690.08l-107.32-62.03,7.43,114.47,99.9-52.44ZM805.52,678.74l-87.23-49.28-6.93,108.96,94.16-59.68ZM646.4,714.79l51.04-82.09-99.49,57.36c16.96,9.99,31.34,18.57,48.45,24.74ZM696.37,741.31l6.86-105.57-51.89,82.14,45.02,23.42ZM435.71,744.38l-90.67-57.85-77.16,44.96,89.31,7.81,78.53,5.08ZM754.08,743.32l141.22-11.16-76.67-45.57-90.1,57.46,25.54-.73ZM572.93,804.09l.87-101.54-47.9,24.97,47.03,76.56ZM637.77,727.53l-48.79-25.1.67,103.04,48.12-77.94ZM288.48,747.12c-1.75-.32-2.34,1.84-.49,2.34l.49-2.34ZM290.7,748.15l-.98,2.25,83.58,48.27,62.24-39.21-144.84-11.31ZM790.41,798.87l85.16-50.05-126.75,8.29-21.74,2.69,63.33,39.07ZM573.12,998.01l.77-46.4-342.42-199.65-38.99,24.47,266.78,156.02,113.85,65.56ZM790.68,883.85c4.08-6.16,11.32-8.76,17.1-12.14l163.67-95.9-39.7-23.81-171.29,100.29-59.44,90.63-44.84,69.66,80.11-46.43,54.39-82.29ZM547.05,899.61l-89.49-138.46-71.66,44.63,161.15,93.83ZM777.73,806.2l-72.43-44.76-89.53,138.67,161.97-93.91ZM589.61,912.96l90.27-138.38-90.87,51.89.6,86.49ZM573.96,825.45l-90.25-49.23,90.27,137.37-.02-88.14ZM1016.76,802.63l-30.44-18.53-183.05,106.8-35.05,56.82,248.54-145.09ZM589.43,998.84l84.65-48.99,46.74-73.78-131.33,75.71-.06,47.07ZM412.4,921.13l-55.31-32.5-77.03-9.38,79.82,47.56,52.52-5.68Z"/>
      <path class="cls-1" d="M481.51,1251.29c-.08,4.68-10.67,2.83-14.16,2.82h-71.58s.25,32.32.25,32.32l100.28.67.1,36.36-142.51.25v-170.32s142.12-.21,142.12-.21l.08,36.66-100.78.27v29.11s86.75.19,86.75.19l-.56,31.88Z"/>
      <path class="cls-1" d="M695.23,1257.25l-34.25-.18.18-34.31,74.21-.03.53,72.49-27.78,28.52-100.04-.13-29.12-27.97.05-112.28,29.72-29.87,117.28-.12-.03,36.33-95.25.25c-4.4.01-10.43,6-10.42,10.44l.12,78.39c0,4.52,8.18,9.67,12.33,9.68l50.32.13c12.29.03,13.91-14.05,12.15-31.35Z"/>
      <path class="cls-1" d="M917.69,1321.09c-14.1,3.98-28.13,1.18-43.6,1.84l-31.38-56.09-41.03.31-.31,55.68-40.78-.02v-168.94s125.6.04,125.6.04l26.66,26.9-.32,60.87-24.12,24.64,29.27,54.77ZM872.4,1219.96l-.13-23.4c-.58-3.19-4.05-9.06-7.97-9.08l-62.86-.28-.12,45.07,61.43.06c5.75,0,10.45-6.09,9.64-12.37Z"/>
      <path class="cls-1" d="M1163.46,1291.98l-30.9,31.12-123.97-.04.03-169.11,124.34-.3,30.25,30.92.25,107.42ZM1122.29,1275.57l-.22-76.53c-2.24-3.36-5.69-9.34-9.89-9.37l-63.18-.31.37,97.41,61.09-.35c5.14-.03,10.26-5.67,11.82-10.85Z"/>
      <polygon class="cls-1" points="329.06 1154.45 326.49 1322.74 286.97 1322.77 286.15 1252.74 213.45 1252.86 213.38 1322.69 173.06 1322.86 173 1154.21 213.21 1154.27 213.27 1217.34 286.8 1217.03 286.88 1154.09 329.06 1154.45"/>
      <polygon class="cls-1" points="151.62 1192.08 97.46 1190.61 96.63 1323 55.5 1322.63 55.64 1190.15 0 1189.82 .21 1153.74 53.46 1153.98 152.42 1153.55 151.62 1192.08"/>
      <polygon class="cls-1" points="982.43 1154.43 979.85 1322.76 940.54 1322.72 940.59 1154.41 982.43 1154.43"/>
    </g>
  </g>
</svg>